<?xml version="1.0" encoding="UTF-8" standalone="no"?>
<!-- Created with Inkscape (http://www.inkscape.org/) -->

<svg
   width="85.375999mm"
   height="92.883003mm"
   viewBox="0 0 85.375999 92.883003"
   version="1.1"
   id="svg1"
   xml:space="preserve"
   xmlns="http://www.w3.org/2000/svg"
   xmlns:svg="http://www.w3.org/2000/svg"><defs
     id="defs1" /><g
     id="layer1"><path
       style="opacity:0.119545;fill:#d77b84;fill-opacity:1;stroke-width:1.10272;stroke-dashoffset:85.8076"
       d="m 75.984006,66.618515 c -7.30485,-4.129865 -18.01759,-8.812351 -22.74271,-9.940738 l -1.94906,-0.465448 0.23192,-0.99791 c 0.3866,-1.663387 0.28264,-6.62158 -0.1761,-8.398639 -2.03609,-7.887457 -7.54352,-10.722912 -11.80736,-6.07892 -2.3141,2.5204 -3.37574,5.820944 -3.3657,10.463476 0.004,1.658891 0.11379,3.478025 0.24487,4.042522 0.18033,0.776495 0.15288,1.02636 -0.11275,1.02636 -0.61521,0 -5.05082,1.354168 -7.77238,2.372867 -3.8131,1.427269 -9.63054,4.149223 -14.608369,6.835183 -2.38808,1.288579 -4.3787899,2.299548 -4.4237999,2.246608 -0.045,-0.05294 1.8249999,-3.421677 4.1555999,-7.486067 7.471739,-13.030184 12.376429,-21.9698 16.563719,-30.190155 4.03943,-7.930096 4.09227,-8.015863 4.67398,-7.586979 2.78685,2.054682 7.20575,4.702454 7.4464,4.461814 0.0547,-0.05468 -0.85019,-0.789487 -2.01083,-1.6329 -1.16064,-0.843412 -2.8719,-2.226641 -3.80283,-3.073842 l -1.69259,-1.540364 0.70858,-1.567087 c 0.38971,-0.861897 2.39669,-5.441023 4.45993,-10.1758329 2.06324,-4.7348111 3.86084,-8.64266303 3.99467,-8.68411803 0.13381,-0.04145 1.15554,2.10819603 2.27049,4.77700093 5.90902,14.144187 14.0138,30.54839 22.14015,44.812008 0.60034,1.053732 1.05575,1.954446 1.01201,2.001593 -0.0437,0.04714 -1.05279,-0.403642 -2.24237,-1.001753 -1.75393,-0.881859 -5.2409,-2.231469 -5.76543,-2.231469 -0.0648,0 1.15641,0.843895 2.71374,1.875329 1.55732,1.031434 3.97066,2.786742 5.36295,3.900689 l 2.53145,2.025354 3.3056,5.703297 c 1.81807,3.136811 3.26208,5.746799 3.20891,5.799967 -0.0532,0.05317 -1.20189,-0.528155 -2.55269,-1.291846 z"
       id="path111" /><path
       style="opacity:0.119545;fill:#b201ab;fill-opacity:1;stroke-width:0.389869;stroke-dashoffset:85.8076"
       d="m 5.1869666,92.859 c -0.10643,-0.0265 -0.4635,-0.11276 -0.79348,-0.1917 -0.32998,-0.0789 -0.79302,-0.22888 -1.02898,-0.33327 -0.56751,-0.25103 -1.57113,-0.99569 -1.71818,-1.27483 -0.0644,-0.1222 -0.14619,-0.24396 -0.18182,-0.27057 -0.15364,-0.11478 -0.49031001,-0.96577 -0.54768001,-1.38438 l -0.0625,-0.4558 1.50682001,0.007 1.50682,0.007 0.0613,0.27912 c 0.0865,0.39408 0.59338,0.90639 1.1609,1.17347 0.39412,0.18547 0.63637,0.22662 1.30635,0.22195 1.39361,-0.01 2.3491805,-0.59761 2.6531405,-1.63227 0.16994,-0.57846 0.26077,-2.08682 0.12567,-2.08682 -0.0507,0 -0.24829,0.137058 -0.43906,0.304562 -0.6531605,0.573478 -1.4541605,0.868768 -2.5152705,0.927228 -1.2142,0.0669 -2.08854,-0.0859 -2.98082,-0.521 -1.01998,-0.49736 -1.857,-1.415764 -2.21876,-2.434515 -0.0886,-0.249424 -0.21086001,-0.557961 -0.27176001,-0.685627 -0.0701,-0.147038 -0.11072,-0.856488 -0.11072,-1.935317 0,-1.867188 0.0793,-2.289862 0.65191001,-3.474207 0.40658,-0.840969 1.32262,-1.770062 2.11457,-2.144713 0.34117,-0.161412 0.69396,-0.293499 0.78396,-0.293539 0.09,-5.1e-5 0.19054,-0.04364 0.22343,-0.09685 0.0346,-0.05598 0.55693,-0.09658 1.23948,-0.09635 0.98039,0 1.28669,0.03787 1.81319,0.222271 0.6557605,0.229623 1.6404905,0.807613 1.6404905,0.962874 0,0.04866 0.0544,0.07064 0.12096,0.04876 0.0665,-0.02187 0.14273,-0.254103 0.16934,-0.516089 l 0.0484,-0.476313 1.2821499,-0.02699 1.28216,-0.02699 -0.008,2.010712 c -0.005,1.105897 -0.0444,3.904906 -0.0884,6.220049 -0.0702,3.688734 -0.10246,4.281124 -0.26057,4.789914 -0.27432,0.88274 -0.54559,1.32447 -1.15604,1.88238 -0.9848199,0.90007 -2.0485699,1.25768 -3.9056004,1.31298 -0.66527,0.0198 -1.29667,0.0143 -1.40312,-0.0122 z m 2.29625,-7.261848 c 1.3275205,-0.512869 1.8708705,-2.029734 1.5407705,-4.301333 -0.11553,-0.795062 -0.36924,-1.302392 -0.88369,-1.767171 -0.5407305,-0.488521 -0.7898905,-0.572351 -1.7042805,-0.573409 -1.50524,-0.0015 -2.26576,0.66413 -2.6026,2.278754 -0.18764,0.899433 -0.18509,1.6179 0.009,2.476549 0.18879,0.836043 0.68946,1.468852 1.43782,1.817342 0.59778,0.27836 1.58184,0.309301 2.20315,0.06927 z"
       id="path112" /><path
       style="fill:#b201ab;fill-opacity:1;stroke-width:0.551359;stroke-dashoffset:85.8076"
       d="m 9.3872271,67.786663 c 0.0454,-0.118208 1.1839999,-2.14217 2.5303399,-4.497701 C 23.142746,43.64954 26.215586,38.05002 31.277506,28.010088 c 1.65073,-3.27409 3.02685,-5.979193 3.05807,-6.01134 0.0312,-0.03215 0.22544,0.0988 0.43163,0.290988 1.30865,1.219745 4.86904,3.470691 7.20346,4.554171 1.38482,0.642739 1.65347,0.708405 0.80073,0.195734 -1.48149,-0.890692 -5.41258,-3.996254 -7.09969,-5.608777 l -0.83888,-0.801797 1.57394,-3.459801 c 0.86568,-1.902892 2.52687,-5.676741 3.69156,-8.3863329 1.16469,-2.709591 2.49501,-5.804606 2.95625,-6.877809 0.46126,-1.07320403 0.90173,-1.93025608 0.97881,-1.90456107973 0.0771,0.0256999997 1.09786,2.32014807973 2.2684,5.09878397973 6.41407,15.225785 11.76756,26.118527 21.1804,43.09583 1.12673,2.032194 2.03731,3.707495 2.02351,3.722902 -0.0138,0.01539 -0.97728,-0.447585 -2.14104,-1.028841 -1.70116,-0.849648 -5.58303,-2.351936 -6.07734,-2.351936 -0.0595,0 0.77868,0.572659 1.86255,1.27258 2.86711,1.851471 7.5907,5.406456 8.61659,6.48486 0.27306,0.287023 1.74415,2.677226 3.26907,5.311552 1.52493,2.634322 2.94884,5.083115 3.16422,5.441772 0.42877,0.71392 0.49298,0.989829 0.2046,0.879175 -0.10287,-0.03949 -1.71938,-0.912081 -3.59226,-1.939109 -8.36666,-4.588043 -16.25366,-7.984764 -21.78225,-9.381031 -0.86364,-0.218104 -1.59213,-0.418442 -1.61887,-0.445185 -0.0267,-0.02673 0.0526,-0.536985 0.17641,-1.133866 0.34526,-1.665194 0.31454,-5.720891 -0.057,-7.524977 -0.60051,-2.915851 -1.80306,-5.368109 -3.46565,-7.067232 -2.0706,-2.116064 -4.1637,-2.541923 -6.55918,-1.334519 -2.40721,1.213316 -4.26297,4.256504 -5.13065,8.413604 -0.45619,2.185658 -0.41172,5.904849 0.0953,7.972658 0.0792,0.322764 0.11363,0.617134 0.0766,0.654145 -0.037,0.03701 -0.69507,0.219324 -1.46235,0.4051 -5.51735,1.33596 -13.61935,4.792067 -21.974909,9.373933 -1.80639,0.990569 -3.4014599,1.863972 -3.5445899,1.940917 -0.21178,0.113844 -0.24488,0.09987 -0.17776,-0.07502 z"
       id="path114" /><path
       style="fill:#a2019c;fill-opacity:1;stroke-width:0.551359;stroke-dashoffset:85.8076"
       d="m 9.3872271,67.786669 c 0.0454,-0.118214 1.1839999,-2.142171 2.5303399,-4.497707 C 23.142746,43.64954 26.215586,38.05002 31.277506,28.010088 c 1.65073,-3.27409 3.02685,-5.979193 3.05807,-6.01134 0.0312,-0.03215 0.22544,0.0988 0.43163,0.290988 1.30865,1.219745 5.32198,3.678328 7.65639,4.761809 1.51174,0.701649 0.85953,0.237343 -0.80302,-0.78778 -1.62036,-0.999114 -3.97244,-2.943846 -5.94887,-4.832901 l -0.83888,-0.801797 1.57394,-3.459801 c 0.86568,-1.902892 2.52687,-5.676741 3.69156,-8.3863339 1.16469,-2.709591 2.49501,-5.804606 2.95625,-6.877809 0.46126,-1.07320403 0.90173,-1.93025508 0.97881,-1.90456007973 C 44.110486,0.02626302 47.887116,8.7222371 49.057646,11.500873 l -24.46049,48.757533 c -3.95427,1.651428 -7.03723,3.221962 -11.487579,5.662361 -1.8064,0.990559 -3.4014599,1.863972 -3.5445899,1.940917 -0.21178,0.113844 -0.24488,0.09987 -0.17776,-0.07501 z"
       id="path114-0" /><path
       style="fill:#b201ab;fill-opacity:1;stroke-width:0.551359;stroke-dashoffset:85.8076"
       d="m 4.4881466,92.69017 c -1.67835,-0.44297 -2.61097,-1.10994 -3.19986,-2.28844 -0.23463,-0.46955 -0.42674001,-0.98245 -0.42690001,-1.13977 0,-0.27528 0.0552,-0.28433 1.47112001,-0.24049 l 1.47139,0.0456 0.2737,0.42829 c 0.64406,1.00786 1.9207,1.38822 3.30689,0.98523 0.9082005,-0.26401 1.5999405,-0.89296 1.7372505,-1.57954 0.0482,-0.24106 0.0877,-0.79968 0.0877,-1.24139 v -0.803067 l -0.62467,0.476809 C 7.7236366,87.99073 6.6674266,88.2778 5.4528966,88.18459 c -1.48425,-0.11388 -2.469,-0.53963 -3.37473,-1.459066 -1.04087,-1.056608 -1.37719001,-1.938517 -1.46029001,-3.829107 -0.1024,-2.330265 0.39957001,-3.849591 1.70398001,-5.157461 0.9359,-0.938374 1.84517,-1.284894 3.36887,-1.283861 1.38787,0.0015 1.93667,0.147732 2.8498505,0.762258 0.77185,0.51941 0.93642,0.475695 0.94045,-0.24984 l 0.002,-0.376341 h 1.3061599 1.30616 l -0.0832,5.713417 c -0.0458,3.142365 -0.14374,6.144471 -0.21774,6.671341 -0.24421,1.73874 -1.14786,2.85819 -2.8201499,3.49365 -0.9930305,0.37734 -3.4370105,0.49753 -4.4861905,0.22062 z m 2.95001,-7.066933 c 1.1106705,-0.308556 1.6767605,-1.401254 1.6739205,-3.231101 -0.004,-2.193627 -0.79408,-3.31001 -2.4410605,-3.446598 -0.39342,-0.03261 -0.93674,0.01377 -1.2074,0.103101 -0.63562,0.20977 -1.38492,1.090378 -1.57706,1.853411 -0.19066,0.757179 -0.19378,2.303836 -0.006,2.980005 0.17401,0.626582 0.86317,1.441911 1.42613,1.687209 0.49502,0.215689 1.46124,0.240154 2.13148,0.05397 z"
       id="path115" /><path
       style="fill:#b201ab;fill-opacity:1;stroke-width:0.551359;stroke-dashoffset:85.8076"
       d="m 18.172956,88.96159 c -2.022289,-0.48997 -3.379329,-1.735409 -4.061319,-3.727312 -0.4402,-1.285683 -0.43448,-3.658479 0.012,-4.940841 0.57824,-1.661169 1.59093,-2.833601 2.992269,-3.464359 0.46696,-0.21017 1.00776,-0.306491 1.94664,-0.346692 1.47812,-0.06331 2.60146,0.224625 3.62572,0.92933 1.42567,0.980894 2.25455,2.953025 2.25772,5.371814 l 0.002,0.786875 h -4.10545 c -4.589249,0 -4.235999,-0.09233 -3.95263,1.033049 0.3082,1.223979 1.46922,2.119675 2.73688,2.111448 0.83994,-0.0055 1.97859,-0.715622 2.19879,-1.371377 0.0412,-0.122507 2.3862,0.182014 2.53311,0.328931 0.15617,0.156172 -0.48674,1.175257 -1.1851,1.878504 -0.98646,0.99335 -1.94713,1.38076 -3.56268,1.43667 -0.63976,0.0222 -1.28636,0.0104 -1.4369,-0.026 z m 3.73871,-7.894032 c 0.11048,-0.962378 -0.93315,-2.151047 -2.0603,-2.34663 -1.42226,-0.246787 -2.96438,1.011424 -2.97547,2.42769 l -0.003,0.383587 2.49748,-0.04147 2.49748,-0.04147 z"
       id="path116" /><path
       style="fill:#b201ab;fill-opacity:1;stroke-width:0.551359;stroke-dashoffset:85.8076"
       d="m 39.085516,88.66386 -1.66738,-0.0383 -0.50798,-1.330131 c -0.2794,-0.731566 -0.58872,-1.531453 -0.68738,-1.77751 l -0.17939,-0.447393 -3.0424,0.03686 -3.0424,0.03686 -0.29682,0.752669 c -0.16324,0.413966 -0.4649,1.199129 -0.67033,1.744805 l -0.37354,0.99215 h -1.69256 -1.69257 l 0.1871,-0.51318 c 0.10293,-0.28224 0.78403,-2.114305 1.51357,-4.071232 0.72954,-1.956926 1.80521,-4.882048 2.39037,-6.500277 0.58515,-1.618229 1.26127,-3.452036 1.50248,-4.075129 l 0.43855,-1.132888 1.8018,0.03813 1.80178,0.03812 1.86003,4.994951 c 2.85374,7.663494 4.14289,11.219365 4.08089,11.256325 -0.031,0.0185 -0.80677,0.0164 -1.72382,-0.005 z m -3.87498,-6.305525 c 0,-0.06452 -0.37609,-1.280752 -0.83577,-2.70276 -0.45967,-1.421988 -0.90717,-2.812295 -0.99446,-3.089547 -0.21938,-0.696811 -0.32695,-0.761194 -0.50419,-0.301762 -0.19306,0.500404 -1.90787,6.003575 -1.90787,6.122726 0,0.04876 0.95451,0.08862 2.12115,0.08862 1.16663,0 2.12114,-0.05278 2.12114,-0.117282 z"
       id="path117" /><path
       style="fill:#b201ab;fill-opacity:1;stroke-width:0.551359;stroke-dashoffset:85.8076"
       d="m 51.918826,88.12756 c -0.19523,-0.31607 -0.97077,-1.745806 -1.72343,-3.177201 l -1.36847,-2.602525 -1.43692,-0.0046 -1.4369,-0.0046 0.0391,3.147616 0.0391,3.14762 h -1.64709 -1.64709 V 80.470753 72.30759 l 4.00281,0.08571 c 4.33625,0.09285 5.20988,0.211942 6.43132,0.87674 0.79982,0.435322 1.2654,0.954024 1.69505,1.888433 0.59845,1.301571 0.55644,3.448537 -0.0925,4.726494 -0.32292,0.635968 -1.20731,1.427319 -2.01769,1.805438 -0.3547,0.165498 -0.66558,0.312546 -0.69084,0.326763 -0.0509,0.02866 2.31518,4.270687 3.14503,5.638582 0.29004,0.47811 0.52737,0.89027 0.52737,0.9159 0,0.0256 -0.7794,0.0655 -1.73199,0.0887 l -1.73198,0.042 z m -0.92533,-8.693476 c 0.78863,-0.43236 1.07728,-1.035444 1.01614,-2.122997 -0.10319,-1.83568 -1.07452,-2.362108 -4.35836,-2.362108 h -1.61727 l -0.0405,2.328175 c -0.0222,1.280483 -0.017,2.397939 0.0118,2.483233 0.0376,0.111606 0.66388,0.131433 2.23501,0.07072 1.92157,-0.07424 2.25098,-0.121747 2.75311,-0.397024 z"
       id="path118" /><path
       style="fill:#b201ab;fill-opacity:1;stroke-width:0.551359;stroke-dashoffset:85.8076"
       d="m 62.256386,88.69825 c -2.41391,-0.60796 -4.2354,-2.494637 -4.96124,-5.138786 -0.17899,-0.6521 -0.24252,-1.4077 -0.2464,-2.931284 -0.005,-1.748067 0.0422,-2.219945 0.31419,-3.179437 1.12992,-3.985456 4.65356,-6.05374 8.81219,-5.172499 2.34579,0.497077 4.08503,2.149492 4.80044,4.560793 0.17073,0.575459 0.17912,0.738638 0.0407,0.791766 -0.0959,0.03681 -0.84148,0.04931 -1.65684,0.0278 l -1.48246,-0.03909 -0.19098,-0.655861 c -0.69545,-2.388366 -4.40794,-2.918479 -5.98241,-0.85425 -0.97236,1.274848 -1.39363,2.989074 -1.2768,5.195693 0.15865,2.996699 1.42617,4.675919 3.6496,4.835012 1.06862,0.07645 1.6653,-0.08291 2.45665,-0.65616 0.62167,-0.450334 0.92781,-0.863257 1.17662,-1.586985 l 0.16985,-0.494064 1.62312,0.024 c 0.89272,0.01327 1.64109,0.04197 1.66303,0.06392 0.022,0.02197 -0.0847,0.443403 -0.23703,0.936556 -0.56314,1.82323 -2.029,3.398456 -3.79921,4.082666 -1.02191,0.39499 -3.65224,0.49764 -4.87301,0.19019 z"
       id="path119" /><path
       style="fill:#b201ab;fill-opacity:1;stroke-width:0.551359;stroke-dashoffset:85.8076"
       d="m 73.256446,80.491324 -0.006,-8.14246 h 1.64419 1.64419 v 3.215937 3.215928 h 3.07907 3.07908 v -3.215928 -3.215937 h 1.64219 1.64217 v 8.14246 8.142456 h -1.64217 -1.64219 v -3.48962 -3.489635 h -3.07908 -3.07907 v 3.489635 3.48962 h -1.63803 -1.63801 z"
       id="path120" /><path
       style="fill:#ce03c6;fill-opacity:1;stroke-width:2.65686;stroke-dashoffset:85.8076"
       d="m 26.587316,41.136021 c -0.24583,0.786608 -0.0438,1.187742 0.15134,1.594721 0.43883,0.468899 1.00372,0.803142 1.68105,0.769474 0.582,-0.07255 1.1089,-0.277271 1.46454,-0.893349 l 0.69804,-1.338563 c 0.16184,-0.415585 0.20099,-0.884326 0.11317,-1.313511 -0.23137,-0.865385 -1.2215,-1.651127 -2.33484,-1.316611 -0.51048,0.178505 -0.69334,0.440806 -0.86118,0.706852 z"
       id="path109-7-4-3-4-5-8-2" /><path
       style="fill:#ce03c6;fill-opacity:1;stroke-width:2.65686;stroke-dashoffset:85.8076"
       d="m 30.187146,33.789852 c -0.24583,0.786609 -0.0438,1.187741 0.15133,1.594722 0.43883,0.468898 1.00373,0.803141 1.68105,0.769473 0.582,-0.07255 1.1089,-0.277271 1.46454,-0.893349 l 0.69804,-1.338563 c 0.16185,-0.415585 0.201,-0.884325 0.11317,-1.31351 -0.23136,-0.865386 -1.22149,-1.651128 -2.33483,-1.316612 -0.51048,0.178506 -0.69334,0.440807 -0.86118,0.706852 z"
       id="path109-7-4-3-4-5-8-2-4" /><path
       style="fill:#ce03c6;fill-opacity:1;stroke-width:2.65686;stroke-dashoffset:85.8076"
       d="m 33.878706,27.15531 c -0.24583,0.786608 -0.0438,1.187741 0.15133,1.594721 0.43883,0.468899 1.00373,0.803142 1.68106,0.769473 0.58199,-0.07255 1.10889,-0.277271 1.46453,-0.893348 l 0.69805,-1.338563 c 0.16184,-0.415586 0.20099,-0.884326 0.11316,-1.313511 -0.23136,-0.865386 -1.22149,-1.651127 -2.33483,-1.316612 -0.51048,0.178506 -0.69334,0.440807 -0.86118,0.706853 z"
       id="path109-7-4-3-4-5-8-2-4-6" /><path
       style="fill:#ce03c6;fill-opacity:1;stroke-width:2.65686;stroke-dashoffset:85.8076"
       d="m 37.705866,19.059358 c -0.24582,0.786608 -0.0438,1.187741 0.15134,1.594721 0.43883,0.468899 1.00373,0.803142 1.68105,0.769474 0.582,-0.07255 1.1089,-0.277271 1.46454,-0.893349 l 0.69804,-1.338563 c 0.16185,-0.415585 0.20099,-0.884326 0.11317,-1.313511 -0.23136,-0.865385 -1.22149,-1.651127 -2.33483,-1.316611 -0.51048,0.178505 -0.69334,0.440806 -0.86118,0.706852 z"
       id="path109-7-4-3-4-5-8-2-4-6-1" /><path
       style="fill:#ce03c6;fill-opacity:1;stroke-width:2.65686;stroke-dashoffset:85.8076"
       d="m 41.103126,11.834605 c -0.24582,0.786608 -0.0438,1.187741 0.15134,1.594721 0.43883,0.468899 1.00373,0.803142 1.68105,0.769474 0.582,-0.07255 1.1089,-0.277271 1.46454,-0.893349 l 0.69804,-1.338563 c 0.16185,-0.415585 0.20099,-0.884326 0.11317,-1.313511 -0.23136,-0.8653852 -1.2215,-1.6511269 -2.33484,-1.3166122 -0.51047,0.178506 -0.69333,0.440807 -0.86118,0.7068532 z"
       id="path109-7-4-3-4-5-8-2-4-6-6" /><path
       style="fill:#ce03c6;fill-opacity:1;stroke-width:2.65686;stroke-dashoffset:85.8076"
       d="m 22.898526,48.118273 c -0.24582,0.786606 -0.0438,1.187742 0.15134,1.594721 0.43883,0.4689 1.00373,0.803142 1.68105,0.769473 0.58199,-0.07256 1.10889,-0.277272 1.46454,-0.893348 l 0.69804,-1.338562 c 0.16185,-0.415586 0.20099,-0.88433 0.11317,-1.31351 -0.23136,-0.865389 -1.2215,-1.651129 -2.33484,-1.316614 -0.51048,0.178505 -0.69334,0.440805 -0.86118,0.706852 z"
       id="path109-7-4-3-4-5-8-2-6" /><path
       style="fill:#ce03c6;fill-opacity:1;stroke-width:2.65686;stroke-dashoffset:85.8076"
       d="m 19.441796,55.206044 c -0.24582,0.786607 -0.0438,1.187742 0.15134,1.594721 0.43883,0.468896 1.00373,0.803138 1.68105,0.769473 0.582,-0.07255 1.1089,-0.277272 1.46454,-0.893347 l 0.69805,-1.338563 c 0.16184,-0.415586 0.20099,-0.884324 0.11316,-1.31351 -0.23136,-0.865388 -1.2215,-1.651129 -2.33484,-1.316614 -0.51047,0.178506 -0.69333,0.440806 -0.86117,0.706852 z"
       id="path109-7-4-3-4-5-8-2-48" /></g></svg>
