<?xml version="1.0" encoding="UTF-8" standalone="no"?>
<!-- Created with Inkscape (http://www.inkscape.org/) -->

<svg
   width="49.308994mm"
   height="19.008999mm"
   viewBox="0 0 49.308996 19.008999"
   version="1.1"
   id="svg1"
   xml:space="preserve"
   xmlns="http://www.w3.org/2000/svg"
   xmlns:svg="http://www.w3.org/2000/svg"><defs
     id="defs1" /><g
     id="layer1"><path
       style="fill:#e5e5e5;fill-opacity:1;stroke-width:0.283357;stroke-dashoffset:85.8076"
       d="M 0.00816226,10.866024 V 2.856628 L 0.1664048,2.814238 c 0.20678041,-0.05542 14.7383372,-0.05542 14.9451112,0 l 0.158242,0.04239 v 8.009396 8.009411 H 7.6389641 0.00816226 Z M 12.005512,16.481285 c 0.413273,-0.200069 0.911346,-0.75788 1.176505,-1.317628 l 0.224002,-0.472851 V 10.82266 6.954515 L 13.175635,6.483548 C 12.905363,5.930984 12.453326,5.452289 11.983234,5.220795 L 11.647768,5.055612 6.7533399,5.036102 1.8589183,5.016592 1.8129193,6.12613 c -0.025318,0.610235 -0.046146,1.290574 -0.046219,1.511861 l -1.987e-4,0.402328 4.3428797,0.01965 c 4.2928697,0.01951 4.3461107,0.02142 4.6241927,0.171049 0.368665,0.198404 0.557804,0.408438 0.741247,0.823132 0.135582,0.3064989 0.150617,0.4684719 0.153325,1.651873 0.0029,1.42949 -0.05557,1.761209 -0.400592,2.259091 -0.369806,0.53365 -0.3405,0.529889 -4.148544,0.529889 H 3.7010119 l 0.024729,-2.021974 0.024656,-2.0219881 H 2.8050398 1.8596763 L 1.8130893,12.09992 c -0.025612,1.456891 -0.046587,3.070971 -0.046587,3.58684 v 0.937945 h 4.9712208 c 4.8615379,0 4.9777709,-0.0029 5.2678859,-0.143611 z"
       id="path173" /><path
       style="fill:#e5e5e5;fill-opacity:1;stroke-width:0.100182;stroke-dashoffset:85.8076"
       d="M 1.496e-5,2.072112 V 1.823462 H 7.6212564 15.242489 v 0.24865 0.248665 H 7.6212564 1.496e-5 Z"
       id="path174" /><path
       style="fill:#e5e5e5;fill-opacity:1;stroke-width:0.100182;stroke-dashoffset:85.8076"
       d="M 1.496e-5,1.102373 V 0.85372297 H 7.6212564 15.242489 V 1.102373 1.351016 H 7.6212564 1.496e-5 Z"
       id="path175" /><path
       style="fill:#e5e5e5;fill-opacity:1;stroke-width:0.100182;stroke-dashoffset:85.8076"
       d="M 0.0166334,0.36473997 C 0.0075044,0.35563997 0,0.24367897 0,0.11603797 v -0.23207595 h 7.6221394 7.6221396 l -0.0074,0.24243096 -0.0074,0.242461 -7.5984056,0.0058 c -4.1791247,0.0037 -7.60588897,-0.0022 -7.61502239,-0.01027 z"
       id="path176" /><path
       style="fill:#e5e5e5;fill-opacity:1;stroke-width:0.100182;stroke-dashoffset:85.8076"
       d="m 16.8142,0.36016997 c -0.02325,-0.01479 -0.0301,-0.08152 -0.02488,-0.242086 l 0.0074,-0.22168395 7.628359,-0.0058 7.628352,-0.0058 -0.0074,0.24247595 -0.0074,0.242497 -7.596372,0.0058 c -4.178008,0.0029 -7.610821,-0.0029 -7.628484,-0.01457 z"
       id="path177" /><path
       style="fill:#e5e5e5;fill-opacity:1;stroke-width:0.100182;stroke-dashoffset:85.8076"
       d="M 16.784143,1.102373 V 0.85372297 h 7.63368 7.633671 V 1.102373 1.351016 h -7.633671 -7.63368 z"
       id="path178" /><path
       style="fill:#e5e5e5;fill-opacity:1;stroke-width:0.100182;stroke-dashoffset:85.8076"
       d="m 16.794726,2.287614 c -0.0074,-0.01833 -0.0095,-0.127332 -0.0051,-0.242431 l 0.0074,-0.209275 7.62746,-0.0058 7.627454,-0.0058 v 0.248687 0.248701 h -7.622022 c -6.329474,0 -7.624178,-0.0058 -7.634747,-0.03319 z"
       id="path179" /><path
       style="fill:#e5e5e5;fill-opacity:1;stroke-width:0.100182;stroke-dashoffset:85.8076"
       d="m 16.800725,18.86455 c -0.0091,-0.0091 -0.01655,-3.623315 -0.01655,-8.031534 V 2.818077 h 7.633671 7.633673 v 8.031535 8.031513 h -7.617091 c -4.189405,0 -7.62456,-0.0075 -7.633671,-0.01655 z m 13.435591,-3.787834 v -1.566529 h -4.208461 c -4.023415,0 -4.217528,-0.0029 -4.414564,-0.04724 -0.279738,-0.0633 -0.460429,-0.159251 -0.644201,-0.342179 -0.24676,-0.245625 -0.390481,-0.575667 -0.485275,-1.114285 -0.05402,-0.306969 -0.05689,-0.383695 -0.05689,-1.523121 V 9.2834899 l -0.907586,-0.0022 -0.907586,-0.0022 v 2.4572231 2.457246 l 0.0577,0.268434 c 0.243712,1.133103 0.941414,1.968482 1.807173,2.163811 0.02738,0.0058 2.234464,0.01243 4.904702,0.01399 l 4.854959,0.0029 z m 0.01156,-8.311265 c 0.01737,-1.291627 0.01258,-1.675137 -0.02149,-1.730343 -0.01347,-0.02178 -1.18703,-0.02885 -4.761195,-0.02885 -4.641179,0 -4.748352,0.0022 -4.9749,0.04945 -0.382217,0.08168 -0.674252,0.24748 -0.983752,0.558474 -0.585487,0.588333 -0.857378,1.233036 -0.899778,2.13346 l -0.01494,0.31703 h 5.819296 5.819288 z"
       id="path180" /><path
       style="fill:#e5e5e5;fill-opacity:1;stroke-width:0.141679;stroke-dashoffset:85.8076"
       d="M 34.047849,10.875407 V 2.857799 h 7.630795 7.630802 v 8.017608 8.017611 h -7.630802 -7.630795 z m 3.670977,5.781776 c 0.01178,-0.03062 0.02134,-1.63702 0.02134,-3.569823 V 9.5731679 l -0.94066,0.0093 -0.940669,0.0093 -0.0091,3.5165101 c -0.0051,1.934068 -0.0015,3.536271 0.0077,3.560455 0.01281,0.03363 0.23145,0.04394 0.928376,0.04394 0.798853,0 0.914276,-0.0067 0.932977,-0.05564 z m 4.720193,-0.296024 c 0.06573,-0.183752 0.16533,-0.44484 0.221338,-0.580231 0.131968,-0.319024 0.354815,-0.890532 0.671874,-1.723086 0.139941,-0.367473 0.308876,-0.810554 0.375401,-0.98462 0.06653,-0.174066 0.167332,-0.439114 0.224017,-0.58901 l 0.206095,-0.545066 c 0.118213,-0.312613 0.244971,-0.640477 0.601596,-1.556048 0.139373,-0.357788 0.289931,-0.7454941 0.334576,-0.8615281 0.247737,-0.6438849 0.426772,-1.0373749 0.472004,-1.0373749 0.03687,0 0.04836,0.7512559 0.06234,4.079134 0.0044,1.131441 0.01913,2.528187 0.03187,3.103876 l 0.02319,1.046737 0.917543,-0.0093 0.917551,-0.0093 0.0089,-5.811001 0.0089,-5.811016 -1.345161,0.0022 -1.345161,0.0022 -0.16274,0.482205 c -0.08951,0.265218 -0.237264,0.656272 -0.328357,0.869013 -0.09109,0.212757 -0.181683,0.434301 -0.201303,0.492311 -0.01958,0.058 -0.08825,0.240002 -0.152503,0.404405 -0.06425,0.164389 -0.190633,0.488785 -0.280827,0.720883 -0.09021,0.232076 -0.18448,0.46945 -0.209511,0.527475 -0.02503,0.058 -0.116925,0.28748 -0.204218,0.5099 -0.0873,0.2224129 -0.279761,0.7129499 -0.427699,1.090102 -0.147932,0.377144 -0.314211,0.79649 -0.369506,0.931865 -0.150544,0.368621 -0.659767,1.747874 -0.675112,1.828588 -0.0074,0.03864 -0.02775,0.06749 -0.04526,0.06403 -0.01752,-0.0037 -0.171499,-0.343695 -0.342172,-0.756048 -0.170666,-0.412353 -0.324521,-0.78138 -0.341905,-0.820056 -0.01737,-0.03871 -0.0669,-0.15736 -0.109982,-0.263738 C 40.804341,10.737857 40.654739,10.374865 40.395138,9.7520289 40.246012,9.3942189 40.068944,8.966962 40.001661,8.802574 39.850395,8.43298 39.670824,7.996796 39.513052,7.615751 39.446962,7.456191 39.339318,7.195102 39.273779,7.035521 39.208209,6.87596 39.025239,6.436854 38.867114,6.059702 38.708982,5.682558 38.555397,5.306731 38.525819,5.224537 l -0.0538,-0.149455 h -1.315814 -1.315751 l 0.0092,1.520883 0.0092,1.520898 0.77363,-0.01288 c 0.81403,-0.01347 1.011337,0.0099 1.122933,0.133271 0.03385,0.03739 0.13687,0.286715 0.228905,0.554 0.147027,0.4269779 0.380566,1.0348589 1.179647,3.07058 0.110088,0.280444 0.255429,0.652312 0.322984,0.826378 0.06756,0.174067 0.176157,0.450993 0.241321,0.61538 0.176671,0.445694 0.63938,1.625842 0.778995,1.986824 0.06734,0.174067 0.175104,0.443081 0.239517,0.597813 0.06439,0.15471 0.160185,0.404294 0.212845,0.554625 l 0.09573,0.273299 0.63208,-0.0096 0.63208,-0.0096 z"
       id="path181" /><path
       style="fill:#e5e5e5;fill-opacity:1;stroke-width:0.100182;stroke-dashoffset:85.8076"
       d="M 34.065586,2.121843 V 1.8732 h 7.621242 7.621241 v 0.248643 0.248672 h -7.621241 -7.621242 z"
       id="path182" /><path
       style="fill:#e5e5e5;fill-opacity:1;stroke-width:0.100182;stroke-dashoffset:85.8076"
       d="M 34.065586,1.139658 V 0.90345297 h 7.621242 7.621241 V 1.139658 1.375884 h -7.621241 -7.621242 z"
       id="path183" /><path
       style="fill:#e5e5e5;fill-opacity:1;stroke-width:0.100182;stroke-dashoffset:85.8076"
       d="m 34.065586,0.16991897 v -0.26116895 l 7.615023,0.0058 7.615024,0.0058 v 0.24864996 0.248642 l -7.615024,0.0058 -7.615023,0.0058 z"
       id="path184" /></g></svg>
