<?xml version="1.0" encoding="UTF-8" standalone="no"?>
<!-- Created with Inkscape (http://www.inkscape.org/) -->

<svg
   width="44.334mm"
   height="17.906mm"
   viewBox="0 0 44.334 17.906"
   version="1.1"
   id="svg1"
   xml:space="preserve"
   xmlns="http://www.w3.org/2000/svg"
   xmlns:svg="http://www.w3.org/2000/svg"><defs
     id="defs1" /><g
     id="layer1"><path
       style="fill:#e5e5e5;fill-opacity:1;stroke-width:0.272243;stroke-dashoffset:85.8076"
       d="m 30.00131,17.33267 v -0.57366 l 2.9836,-0.0176 2.98361,-0.0176 0.006,-6.25032 0.006,-6.25031 0.55746,-0.0196 0.55746,-0.0196 v 3.27864 3.27864 l 0.15203,0.037 c 0.0836,0.0203 1.44433,0.0285 3.02381,0.0182 l 2.87176,-0.0188 0.0186,-3.31098 c 0.0107,-1.90909 -0.009,-3.49236 -0.0471,-3.73936 -0.1827,-1.19165 -1.07209,-2.1664 -2.2688,-2.48654 -0.26387,-0.0706 -1.21321,-0.0906 -4.33542,-0.0912 -3.72705,-7.9e-4 -4.02524,0.008 -4.40659,0.1265 -0.56707,0.17649 -0.93,0.40429 -1.34757,0.8458 -0.41683,0.44074 -0.67143,0.95409 -0.77602,1.56468 L 29.90554,4.1219 H 29.3549 28.80426 L 28.72986,3.67296 C 28.68896,3.42604 28.57251,3.05355 28.47113,2.84521 28.24501,2.38054 27.57892,1.70134 27.14528,1.49325 26.43828,1.154 26.3862,1.15044 22.1228,1.14958 c -3.86357,-7.9e-4 -4.00642,0.004 -4.42591,0.14002 -0.8195,0.26623 -1.43633,0.7918 -1.81733,1.54845 -0.27822,0.55254 -0.33921,0.96319 -0.33921,2.28409 v 1.19631 l 3.50942,3.50893 3.50942,3.50893 -0.39978,0.40994 -0.39979,0.40995 -3.68841,-3.68262 -3.68842,-3.68262 0.0245,-1.68928 c 0.0235,-1.62234 0.0315,-1.70891 0.20236,-2.18488 0.24234,-0.67521 0.54883,-1.16137 1.0413,-1.65167 0.48897,-0.48682 1.10181,-0.87361 1.71281,-1.08102 0.43291,-0.14696 0.51018,-0.14977 4.64248,-0.16916 4.67976,-0.022 4.67078,-0.0226 5.61349,0.43078 0.5284,0.25416 1.31489,0.93221 1.58133,1.36333 l 0.14866,0.24054 0.1005,-0.16324 C 29.50552,1.79656 29.7869,1.48952 30.07556,1.204 30.46151,0.82224 30.73455,0.62033 31.10737,0.44101 32.03036,-0.00293 32.09798,-0.008 36.78393,0.01467 l 4.19693,0.0203 0.4938,0.17987 c 1.2852,0.46814 2.24937,1.48131 2.68924,2.82592 0.11065,0.33826 0.12375,0.75234 0.14578,4.61112 l 0.0242,4.23949 -3.60228,0.0175 -3.60228,0.0175 -0.0176,2.99002 -0.0176,2.99001 h -3.54677 -3.54677 z"
       id="path1" /><path
       style="fill:#e5e5e5;fill-opacity:1;stroke-width:0.272243;stroke-dashoffset:85.8076"
       d="M 3.58104,17.86174 C 2.46126,17.68823 1.39121,17.00421 0.75758,16.05686 0.34916,15.44623 0.14873,14.8734 0.065,14.07755 0.0305,13.74913 0.0016,10.44732 0.001,6.74021 L 0,0 h 7.19905 7.19904 l -0.0196,0.55746 -0.0196,0.55746 -2.99002,0.0176 -2.99002,0.0176 v 6.24961 6.24962 H 7.8045 7.23014 V 7.39903 1.14871 H 4.22195 1.21376 l 0.0182,6.67264 0.0182,6.67264 0.15085,0.37164 c 0.20825,0.51309 0.73481,1.13649 1.19059,1.40955 0.78513,0.47038 0.52795,0.44669 5.0759,0.46757 3.94866,0.0181 4.13827,0.0133 4.56105,-0.11544 0.83831,-0.25535 1.47727,-0.80285 1.86148,-1.59505 0.13226,-0.27271 0.24986,-0.63993 0.27591,-0.86153 l 0.0454,-0.38624 h 0.5574 0.5574 l 0.0826,0.43761 c 0.23514,1.24618 1.15632,2.20616 2.36529,2.46489 0.26831,0.0574 1.49889,0.0736 4.4259,0.0582 l 4.05426,-0.0214 0.46299,-0.19577 c 0.55438,-0.2344 1.16657,-0.77307 1.45853,-1.28335 0.33919,-0.59286 0.40968,-1.00633 0.40968,-2.40328 v -1.25252 l -3.49562,-3.4961 -3.49561,-3.4961 0.40306,-0.40731 0.40307,-0.40731 3.6669,3.66644 3.66691,3.66644 v 1.56045 c 0,1.3328 -0.0195,1.63659 -0.13349,2.08236 -0.19182,0.75004 -0.49842,1.27954 -1.08278,1.87 -0.54364,0.54933 -0.99067,0.83638 -1.68929,1.08474 -0.43783,0.15565 -0.45226,0.15621 -4.59139,0.17837 -4.7337,0.0253 -4.82289,0.018 -5.78076,-0.47807 C 16.1226,17.13636 15.50696,16.6019 15.12533,16.0836 l -0.17285,-0.23476 -0.10762,0.20098 c -0.26764,0.49982 -1.0315,1.15185 -1.7096,1.45932 -0.85534,0.38783 -0.96252,0.39556 -5.36446,0.38677 -2.21126,-0.004 -4.09649,-0.0198 -4.1894,-0.0342 z"
       id="path2" /></g></svg>
