<?xml version="1.0" encoding="UTF-8" standalone="no"?>
<!-- Created with Inkscape (http://www.inkscape.org/) -->

<svg
   width="69mm"
   height="80mm"
   viewBox="0 0 69 80"
   version="1.1"
   id="svg1"
   xml:space="preserve"
   xmlns="http://www.w3.org/2000/svg"
   xmlns:svg="http://www.w3.org/2000/svg"><defs
     id="defs1" /><g
     id="layer1"><path
       style="fill:#a2029b;fill-opacity:1;stroke-width:0.677044;stroke-dashoffset:85.8076"
       d="m 27.510045,78.644137 -0.384324,-0.269208 0.619395,-0.613025 c 0.937248,-0.927611 2.207736,-2.808913 2.593819,-3.840883 0.461172,-1.232592 0.66327,-3.434138 0.714751,-7.786083 0.03825,-3.227392 0.01055,-3.669353 -0.255161,-4.075065 -0.228388,-0.348869 -0.432904,-0.455066 -0.876316,-0.455066 -0.689164,0 -0.695759,0.01055 -1.484895,2.376861 -1.153766,3.459834 -2.73305,6.159965 -4.804237,8.213817 -1.028295,1.019713 -1.616169,1.435256 -3.03934,2.148486 -2.179512,1.092249 -3.71114,1.446072 -5.713524,1.319903 -1.979216,-0.124715 -3.460639,-0.617211 -4.434156,-1.474151 -0.6525438,-0.574386 -1.2793248,-1.414836 -1.2793248,-1.715425 0,-0.03856 0.9641538,-0.109178 2.1425828,-0.156987 4.105048,-0.166541 6.330853,-1.433833 8.484866,-4.830962 1.798308,-2.836091 3.02857,-6.365993 2.505849,-7.189837 -0.0754,-0.118806 -0.413692,-0.260895 -0.751768,-0.315756 -0.591478,-0.09599 -0.675228,-0.04185 -2.220837,1.435766 -1.396178,1.334753 -1.852338,1.654263 -3.488818,2.443703 -2.408735,1.161978 -3.248033,1.356787 -5.831653,1.353565 C 8.1576492,65.21159 7.7589922,65.15772 6.673852,64.764237 3.296128,63.539422 1.09657,61.267465 0.49493604,58.381935 c -0.402262,-1.929134 0.08907,-4.170127 1.16317396,-5.305363 0.833099,-0.88054 1.073489,-0.750884 1.090591,0.588155 0.01802,1.397176 0.509092,3.186815 1.114682,4.060677 0.530239,0.765128 2.180611,2.015846 3.081238,2.335083 2.6109212,0.925483 4.981891,0.371215 7.175603,-1.67744 1.083557,-1.011954 1.393584,-1.43636 2.110489,-2.889242 1.061488,-2.151331 1.234922,-3.096035 1.114507,-6.072192 -0.09645,-2.384762 -0.327481,-3.616347 -1.193289,-6.36128 l -0.41633,-1.31996 0.370521,0.106716 c 0.69888,0.201281 4.236498,0.424696 6.756195,0.426679 3.546674,0.0026 4.579674,-0.311034 6.272031,-1.905521 0.502761,-0.473675 1.095163,-1.146468 1.316517,-1.49509 0.532568,-0.838819 1.356435,-3.333752 1.483225,-4.491484 0.262371,-2.396508 0.24971,-2.354484 0.812569,-2.697681 0.80848,-0.492976 2.629165,-0.460491 3.231546,0.05765 0.395536,0.340199 0.465261,0.563773 0.602382,1.930329 0.196031,1.954389 0.856708,4.256391 1.518088,5.28932 0.686218,1.071766 2.035752,2.264997 3.164459,2.797992 l 0.924279,0.436434 4.537161,-0.02255 c 3.623433,-0.01798 4.704836,-0.07598 5.369557,-0.287913 0.457831,-0.145958 0.849278,-0.248493 0.869897,-0.227861 0.02066,0.02062 -0.221178,0.830774 -0.537404,1.800313 -0.886207,2.717346 -1.121717,4.046195 -1.131389,6.384004 -0.0097,2.325087 0.210759,3.444223 1.028999,5.224603 1.030669,2.242594 2.602699,3.925411 4.494736,4.811468 0.881152,0.412668 1.191003,0.466681 2.676954,0.466681 1.489028,0 1.785734,-0.05197 2.604678,-0.456261 2.55966,-1.263621 3.918732,-3.479319 3.920446,-6.391531 0,-1.10098 0.153739,-1.192744 0.917597,-0.550022 1.25343,1.054691 1.736144,3.895042 1.047375,6.162664 -0.702441,2.312631 -2.208043,4.009441 -4.603412,5.187976 -1.596518,0.785501 -3.412147,1.098931 -5.56172,0.960117 -1.576427,-0.1018 -4.217374,-0.813527 -5.298777,-1.427989 -0.9132,-0.518865 -3.036351,-2.262532 -3.913809,-3.214234 -0.533272,-0.578395 -0.741876,-0.690826 -1.281786,-0.690826 -1.152315,0 -1.306406,0.605349 -0.68512,2.691592 0.806765,2.708853 2.515477,5.68635 4.167783,7.262372 1.779932,1.697769 3.979491,2.500851 6.963482,2.542475 0.964373,0.01345 1.637711,0.09193 1.637799,0.190883 0,0.372833 -0.700024,1.27943 -1.355029,1.753919 -2.255656,1.633996 -6.134514,1.78067 -9.196584,0.347756 -4.075549,-1.907178 -7.098975,-5.710055 -8.757129,-11.014692 -0.279649,-0.894622 -0.595699,-1.731726 -0.702353,-1.860226 -0.288398,-0.347528 -1.064477,-0.28266 -1.429062,0.119443 -0.282991,0.31216 -0.331614,0.726098 -0.419364,3.570938 -0.09478,3.073288 -0.127009,3.311449 -0.717477,5.301287 -1.093272,3.684353 -2.02907,5.193195 -4.065525,6.555284 -2.024498,1.354057 -4.332821,1.906672 -5.257892,1.258736 z m 4.278659,-31.490639 c 1.059421,-0.875436 2.080155,-1.344829 2.924465,-1.344829 0.77054,0 2.050656,0.588625 2.897956,1.33259 0.786014,0.690123 1.293963,0.784749 1.852821,0.345154 1.095779,-0.861931 0.240039,-2.353751 -1.934769,-3.373012 -1.128619,-0.528941 -1.346939,-0.572798 -2.819745,-0.566534 -1.797165,0.0076 -2.669567,0.300228 -3.766181,1.263071 -0.720071,0.632242 -1.318364,1.703449 -1.243143,2.225743 0.04889,0.339285 0.657995,0.781536 1.083997,0.78704 0.105467,0.0013 0.557539,-0.299788 1.004599,-0.669223 z"
       id="path121" /><path
       style="fill:#a2029b;fill-opacity:1;stroke-width:0.677044;stroke-dashoffset:85.8076"
       d="M 31.264533,28.296807 C 30.873174,27.499242 30.610011,27.190855 30.088214,26.918495 29.434527,26.577276 29.199809,26.567626 21.552615,26.567626 H 13.68921 l 0.111182,-0.672177 c 0.384413,-2.324198 1.853086,-5.90082 3.343873,-8.143295 0.971231,-1.460909 3.52333,-3.902014 5.324144,-5.092573 1.819586,-1.20296 3.189386,-1.880061 4.987342,-2.46531 2.347187,-0.7640305 3.672804,-0.9357765 7.169668,-0.9289045 2.709618,0.0053 3.414257,0.06181 4.656037,0.373246 5.001587,1.2543755 9.832201,4.4737935 12.392828,8.2593365 1.473993,2.17908 3.369063,6.807539 3.368184,8.226354 v 0.443323 l -7.519657,0.01381 c -8.634165,0.01587 -8.943181,0.05415 -10.015351,1.240935 -0.332581,0.368103 -0.653159,0.862546 -0.712465,1.09876 -0.08533,0.340111 -0.179501,0.406711 -0.452556,0.320051 -0.397118,-0.126038 -3.478927,-0.127049 -4.133756,-0.0013 -0.398305,0.07645 -0.487286,-0.01244 -0.943886,-0.943038 z"
       id="path122" /><path
       style="fill:#a2029b;fill-opacity:1;stroke-width:0.338523;stroke-dashoffset:85.8076"
       d="m 18.134313,39.884505 c -0.451589,-0.03548 -0.943095,-0.111209 -1.092306,-0.168287 -2.691285,-1.029561 -3.588175,-2.600527 -3.934648,-6.891979 -0.202669,-2.509749 0.04089,-3.578728 0.901682,-3.959544 0.367311,-0.162483 0.558199,-0.166286 7.49284,-0.149228 7.870878,0.01934 7.465583,-0.0099 7.856986,0.568055 0.298993,0.441521 0.393249,1.026625 0.393249,2.440968 0,1.936137 -0.261712,3.497348 -0.835913,4.985971 -0.539514,1.398825 -1.002137,2.018735 -1.898807,2.54462 -1.193729,0.700068 -0.938303,0.663152 -4.701231,0.67941 -1.84847,0.008 -3.730308,-0.01451 -4.181852,-0.04999 z m 5.93435,-2.907065 c 0.530018,-0.180605 1.252023,-0.851472 1.515318,-1.408026 0.290815,-0.614691 0.419451,-1.451532 0.361244,-2.349983 -0.07979,-1.23111 -0.478669,-1.711604 -1.756059,-2.115123 -0.76676,-0.242214 -1.159306,-0.261039 -1.673365,-0.08025 -0.953603,0.335363 -1.332696,0.868925 -1.556643,2.190806 -0.11747,0.693653 -0.124899,0.939745 -0.04476,1.491503 0.167895,1.156474 0.716686,2.000854 1.475312,2.269851 0.466184,0.16531 1.195794,0.165837 1.678948,0.0013 z"
       id="path123" /><path
       style="fill:#a2029b;fill-opacity:1;stroke-width:0.338523;stroke-dashoffset:85.8076"
       d="m 42.799246,39.839988 c -0.579301,-0.156043 -1.537387,-0.643571 -1.913271,-0.973571 -0.827209,-0.726304 -1.397629,-2.040038 -1.819586,-4.190666 -0.165653,-0.844258 -0.188865,-1.217451 -0.183942,-2.955833 0.0066,-2.306736 0.02858,-2.389237 0.739327,-2.743579 l 0.413868,-0.20638 7.020413,-0.0089 c 3.861274,-0.0049 7.163029,0.02132 7.337343,0.05828 0.362871,0.07691 0.845585,0.467314 1.049178,0.848548 0.182446,0.34165 0.180028,2.132607 -0.0048,3.495448 -0.07205,0.531439 -0.155454,1.230921 -0.185348,1.554406 -0.17427,1.884699 -1.007633,3.499976 -2.225233,4.313068 -1.198784,0.800505 -2.195251,0.940567 -6.636309,0.932777 -2.430584,-0.0044 -3.253836,-0.03258 -3.59178,-0.12362 z m 3.533353,-2.971418 c 0.480824,-0.234574 0.887086,-0.749939 1.165548,-1.478631 0.274681,-0.718664 0.26668,-2.203757 -0.01583,-2.933948 -0.265317,-0.686012 -0.721742,-1.158835 -1.334059,-1.382105 -0.61623,-0.224687 -0.93738,-0.22503 -1.662506,-0.0018 -0.969077,0.298377 -1.518879,0.780181 -1.705634,1.494778 -0.220914,0.84515 -0.121997,2.204408 0.215023,2.955459 0.255118,0.568491 0.948239,1.281562 1.418776,1.459595 0.497353,0.188184 1.411169,0.134188 1.918634,-0.113368 z"
       id="path124" /><path
       style="fill:#000000;fill-opacity:1;stroke-width:0.239371;stroke-dashoffset:85.8076"
       d="m 30.289081,47.664503 c -0.376895,-0.171188 -0.561936,-0.431955 -0.561936,-0.791744 0,-0.241788 0.05456,-0.405594 0.280616,-0.842073 0.389821,-0.752708 1.074457,-1.437863 1.828511,-1.829908 0.84708,-0.440409 1.327684,-0.576764 2.249061,-0.638093 1.543059,-0.102702 2.439201,0.06418 3.674123,0.684214 0.737743,0.370389 1.13684,0.649554 1.550532,1.084533 0.383094,0.402803 0.565101,0.75478 0.617021,1.193408 0.02945,0.247833 0.01055,0.334963 -0.122964,0.562349 -0.187811,0.320512 -0.451501,0.532089 -0.786367,0.630997 -0.340406,0.100535 -0.730842,-0.03697 -1.185419,-0.417539 -1.333179,-1.116068 -2.357782,-1.593058 -3.285138,-1.529338 -0.810811,0.05572 -1.773073,0.510916 -2.614614,1.236878 -0.943623,0.814046 -1.131257,0.888968 -1.643426,0.656316 z"
       id="path126" /><path
       style="fill:#000000;fill-opacity:1;stroke-width:0.239371;stroke-dashoffset:85.8076"
       d="m 22.431568,36.972068 c -1.072874,-0.379731 -1.70836,-1.832745 -1.503888,-3.43842 0.19779,-1.553306 0.630474,-2.202236 1.675959,-2.513591 0.505003,-0.150402 0.686922,-0.147333 1.301482,0.02198 1.050804,0.289497 1.570008,0.646138 1.862933,1.279615 0.114392,0.247419 0.126965,0.377629 0.126965,1.314345 0,1.130883 -0.06704,1.468392 -0.415362,2.09166 -0.227377,0.406755 -0.773618,0.916199 -1.216853,1.134858 -0.339087,0.167266 -0.451545,0.191551 -0.950613,0.205307 -0.432508,0.01191 -0.640234,-0.01068 -0.880623,-0.09575 z"
       id="path127" /><path
       style="fill:#000000;fill-opacity:1;stroke-width:0.239371;stroke-dashoffset:85.8076"
       d="m 44.41502,36.955164 c -0.369554,-0.142014 -0.927928,-0.635565 -1.201686,-1.062169 -0.313808,-0.489062 -0.471987,-1.054647 -0.513137,-1.834789 -0.09813,-1.86099 0.380105,-2.583777 2.008012,-3.034895 0.238763,-0.06616 0.532305,-0.120292 0.652368,-0.120292 0.295036,0 1.03722,0.257487 1.324518,0.459515 0.296223,0.208314 0.705431,0.803121 0.835298,1.214127 0.129075,0.408645 0.18781,1.842359 0.09571,2.336706 -0.135494,0.727219 -0.653247,1.555627 -1.173066,1.876874 -0.493309,0.304888 -1.459309,0.383446 -2.028014,0.164923 z"
       id="path128" /><path
       style="fill:#bdbdbd;fill-opacity:1;stroke-width:0.478744;stroke-dashoffset:85.8076"
       d="M 7.3306602,14.079908 C 6.895998,13.645233 6.732543,13.045801 6.861091,12.357683 7.10236,11.066357 7.5493762,10.504773 9.5199752,9.0172255 c 1.8423588,-1.390691 2.3239738,-2.069507 2.3239738,-3.275417 0,-1.105556 -0.514939,-1.899872 -1.604123,-2.474403 -0.4981448,-0.262762 -0.7477228,-0.313496 -1.5447288,-0.314032 -0.689428,-4.4e-4 -1.058674,0.05789 -1.343906,0.212372 C 6.680623,3.5289555 6.029178,4.2019235 5.543914,5.0328165 5.203157,5.6162365 4.96158,5.8854485 4.643068,6.0365895 3.475673,6.5905545 2.350923,5.5554445 2.709442,4.2570485 3.142785,2.6875025 4.987914,1.0701066 6.907956,0.57667858 c 0.9620872,-0.24723504 3.145335,-0.24212604 3.993514,0.0094 2.367497,0.70190002 3.80566,2.65867292 3.839468,5.22401692 0.01363,1.040104 -0.0044,1.113663 -0.483198,2.079439 -0.578949,1.165275 -1.258794,1.919712 -2.920289,3.2406825 -1.294667,1.029329 -1.4371948,1.203356 -1.6941148,2.068439 -0.241489,0.813219 -0.720203,1.217437 -1.441812,1.217437 -0.428508,0 -0.601502,-0.06677 -0.870864,-0.336132 z"
       id="path129" /><path
       style="fill:#bdbdbd;fill-opacity:1;stroke-width:0.338523;stroke-dashoffset:85.8076"
       d="M 7.7383732,19.781316 C 7.133662,19.507303 6.562054,18.784916 6.562054,18.294768 c 0,-0.259888 0.375709,-1.034257 0.59781,-1.232113 0.1102152,-0.09819 0.3914032,-0.240522 0.6248462,-0.316296 0.40468,-0.131362 0.447412,-0.129867 0.918388,0.03218 0.578466,0.199029 0.755725,0.342037 0.990004,0.798733 0.237708,0.463397 0.223728,0.930948 -0.04001,1.344847 -0.296971,0.465727 -0.556177,0.686558 -0.982267,0.836889 -0.423715,0.149497 -0.640189,0.15468 -0.93228,0.02229 z"
       id="path130" /><path
       style="fill:#bdbdbd;fill-opacity:1;stroke-width:0.338523;stroke-dashoffset:85.8076"
       d="m 59.211879,14.339532 c -1.059729,-0.31729 -1.260992,-2.00912 -0.403713,-3.393533 0.339351,-0.548092 0.927972,-1.1218755 2.032104,-1.9809835 1.811848,-1.409754 2.184567,-1.940177 2.184567,-3.108816 0,-0.481949 -0.04656,-0.756071 -0.179413,-1.056471 -0.253183,-0.572298 -0.960197,-1.24782 -1.646064,-1.572694 -0.531162,-0.251605 -0.6281,-0.269322 -1.452935,-0.265497 -0.757131,0.0035 -0.943798,0.03315 -1.302361,0.206701 -0.752207,0.364115 -1.475883,1.177374 -1.873309,2.105201 -0.213748,0.498998 -0.589632,0.809816 -1.065708,0.881203 -0.827956,0.124161 -1.336696,-0.188232 -1.60065,-0.982868 -0.116854,-0.351849 -0.117997,-0.443231 -0.0097,-0.80757 0.282858,-0.952538 0.946964,-1.894873 1.882673,-2.6714579 1.117892,-0.92774302 2.597908,-1.42319806 4.054711,-1.35736806 2.130273,0.09626 3.526627,0.63791704 4.626318,1.79454506 0.852971,0.8971359 1.260815,1.6929379 1.51712,2.9602509 0.150309,0.743279 0.151804,0.829798 0.02594,1.512395 -0.148991,0.80815 -0.544043,1.635196 -1.161546,2.431679 -0.476823,0.615043 -0.964329,1.0683375 -2.131021,1.9815195 -1.050496,0.822223 -1.217688,1.013959 -1.362854,1.562961 -0.225442,0.852601 -0.36353,1.16721 -0.617065,1.405929 -0.424419,0.399615 -0.953954,0.523481 -1.51712,0.354874 z"
       id="path131" /><path
       style="fill:#bdbdbd;fill-opacity:1;stroke-width:0.338523;stroke-dashoffset:85.8076"
       d="m 59.16242,19.754868 c -0.323128,-0.140154 -0.821977,-0.642757 -0.93672,-0.943741 -0.115623,-0.30342 -0.08731,-0.92864 0.05579,-1.230156 0.190844,-0.402214 0.527776,-0.678944 1.021569,-0.839101 0.412593,-0.133815 0.46381,-0.133494 0.905199,0.0057 0.87781,0.276699 1.366723,1.058608 1.138775,1.821116 -0.138968,0.464918 -0.77309,1.101283 -1.220942,1.225263 -0.437784,0.121198 -0.610383,0.114208 -0.96367,-0.03904 z"
       id="path132" /></g></svg>
